<?xml version="1.0" encoding="UTF-8"?>
<svg width="112px" height="113px" viewBox="0 0 112 113" version="1.1" xmlns="http://www.w3.org/2000/svg" xmlns:xlink="http://www.w3.org/1999/xlink">
    <!-- Generator: sketchtool 41.2 (35397) - http://www.bohemiancoding.com/sketch -->
    <title>691ACFA2-8ED5-4004-B238-16E9051065F3</title>
    <desc>Created with sketchtool.</desc>
    <defs></defs>
    <g id="Admins" stroke="none" stroke-width="1" fill="none" fill-rule="evenodd">
        <g id="Predefined-Application-Edit" transform="translate(-307.000000, -169.000000)" fill="#E5E5E5">
            <g id="Group-3" transform="translate(307.000000, 169.000000)">
                <path d="M0.0286190217,104.411531 C0.0128131724,108.831747 3.57786663,112.415039 8.00488637,112.415039 L37.3144531,112.415039 L37.3144531,104.33252 L8.23095703,104.33252 L8.23095703,75 L0.133789062,75 L0.0286190217,104.411531" id="Rectangle"></path>
                <path d="M111.314401,104.411531 C111.330207,108.831747 107.765153,112.415039 103.338133,112.415039 L74.0285667,112.415039 L74.0285667,104.33252 L103.112063,104.33252 L103.112063,75 L111.209231,75 L111.314401,104.411531" id="Rectangle"></path>
                <path d="M0.0286190217,8.00350786 C0.0128131724,3.58329253 3.57786663,0 8.00488637,0 L37.3144531,0 L37.3144531,8.08251953 L8.23095703,8.08251953 L8.23095703,37.4150391 L0.133789062,37.4150391 L0.0286190217,8.00350786 Z" id="Rectangle"></path>
                <path d="M74.028619,8.00350786 C74.0128132,3.58329253 77.5778666,0 82.0048864,0 L111.314453,0 L111.314453,8.08251953 L82.230957,8.08251953 L82.230957,37.4150391 L74.1337891,37.4150391 L74.028619,8.00350786 Z" id="Rectangle" transform="translate(92.671510, 18.707520) scale(-1, 1) translate(-92.671510, -18.707520) "></path>
                <path d="M60.3333333,43 L52.2083333,53.8333333 L58.3833333,62.0666667 L54.9166667,64.6666667 C51.255,59.7916667 45.1666667,51.6666667 45.1666667,51.6666667 L32.1666667,69 L79.8333333,69 L60.3333333,43 Z" id="Shape"></path>
            </g>
        </g>
    </g>
</svg>